<svg id="Capa_1" enable-background="new 0 0 512 512" height="512" viewBox="0 0 512 512" width="512" xmlns="http://www.w3.org/2000/svg"><g><path d="m437.02 161.146c-48.352-48.352-112.64-74.98-181.02-74.98s-132.667 26.629-181.02 74.98c-48.351 48.353-74.98 112.64-74.98 181.02 0 8.284 6.716 15 15 15h89.625c8.284 0 15-6.716 15-15 0-28.1 8.586-55.133 24.47-77.837l92.657 136.778c9.452 13.953 24.496 22.872 41.273 24.471 1.804.172 3.603.257 5.394.257 14.868 0 29.121-5.857 39.756-16.493 11.917-11.916 17.835-28.373 16.237-45.149-1.599-16.778-10.518-31.821-24.471-41.274l-136.695-92.599c22.612-15.679 49.482-24.153 77.379-24.153 74.991 0 136 61.01 136 136 0 8.284 6.716 15 15 15h90.375c8.284 0 15-6.716 15-15 0-68.381-26.629-132.668-74.98-181.021zm-346.723 166.02h-59.805c3.363-51.044 23.757-97.508 55.529-133.765l31.081 31.081 9.218 13.607c-20.607 25.552-33.089 56.434-36.023 89.077zm207.818 20.589c6.519 4.416 10.686 11.443 11.432 19.281.747 7.837-2.018 15.524-7.585 21.092-5.567 5.567-13.255 8.34-21.092 7.584-7.837-.746-14.865-4.913-19.28-11.432l-76.704-113.229zm-159.8-144.486-31.079-31.079c36.256-31.772 82.719-52.156 133.763-55.518v60.141c-32.589 2.858-63.466 15.225-89.034 35.703zm132.685-26.391v-60.206c51.044 3.362 97.507 23.746 133.763 55.518l-42.693 42.693c-25.144-21.062-56.597-34.824-91.07-38.005zm149.953 150.288c-3.098-34.433-16.759-65.868-37.705-91.035l42.73-42.73c31.771 36.257 52.166 82.721 55.529 133.766h-60.554z"/></g></svg>