<svg id="Capa_1" enable-background="new 0 0 512 512" height="512" viewBox="0 0 512 512" width="512" xmlns="http://www.w3.org/2000/svg"><g><path d="m271 86.389v120.427c26.221 2.964 50.204 13.412 69.759 29.153l85.338-85.338c-43.189-38.499-97.334-60.926-155.097-64.242z"/><path d="m447.31 171.845-85.378 85.378c18.572 23.257 29.693 52.712 29.693 84.719 0 8.284 6.716 15 15 15h90.375c8.284 0 15-6.716 15-15 0-63.355-22.874-123.187-64.69-170.097z"/><path d="m314.94 322.694-177.807-120.449c-5.953-4.033-13.933-3.273-19.019 1.812s-5.846 13.064-1.812 19.02l120.45 177.807c9.452 13.953 24.496 22.872 41.273 24.471 1.804.172 3.603.257 5.394.257 14.868 0 29.121-5.857 39.756-16.493 11.917-11.916 17.835-28.373 16.237-45.149-1.599-16.78-10.518-31.823-24.472-41.276z"/><path d="m128.726 169.664c9.03 0 17.756 2.678 25.234 7.744l54.563 36.962c10.301-3.816 21.181-6.426 32.477-7.64v-120.341c-57.763 3.316-111.908 25.743-155.097 64.243l23.411 23.411c5.984-2.864 12.581-4.379 19.412-4.379z"/><path d="m88.123 195.278-23.433-23.433c-41.816 46.91-64.69 106.742-64.69 170.097 0 8.284 6.716 15 15 15h89.625c8.284 0 15-6.716 15-15 0-16.78 3.062-32.855 8.647-47.706l-36.807-54.334c-9.147-13.504-10.05-30.536-3.342-44.624z"/></g></svg>